<?xml version="1.0" encoding="UTF-8"?>
<svg xmlns="http://www.w3.org/2000/svg" viewBox="0 0 4000 4000">
  <g id="a" data-name="Layer 1"/>
  <g id="b" data-name="Layer 2">
    <g id="c" data-name="Layer 1">
      <g id="d" data-name="abstract vibrant tree logo design Vector">
        <path d="M4000,2000c0,1104.57-895.43,2000-2000,2000S0,3104.57,0,2000V0H2000c1104.57,0,2000,895.43,2000,2000Z" style="fill: #00685b; fill-rule: evenodd;"/>
        <g>
          <path d="M2252.75,1968.07c41.63-6.36,90.16-4.08,143.47,6.07,59.55,22.62,108.08,44.5,145.39,65.29-15.3-32.98-54.27-58.8-116.69-77.93,59.3-8.4,105.47-31.36,138.44-68.66,43.29-3.95,76.52-21.16,100.22-51.53-47.37,20.59-77.98,30.03-92.08,28.57,27.49-38.84,37.55-76.85,30.36-113.82-20.55,99.6-106.63,172.42-208.26,176.24-32.27-.96-64.09-.96-94.94-.37-16.01,11.15-31.32,23.08-45.91,36.14" style="fill: #fff; fill-rule: evenodd;"/>
          <path d="M2260.15,2584.88c57.89,3.58,116.69,8.36,176.25,14.1-27.74-22.95-101.64-48.53-215.92-92.28,11.23,23.91,23.21,47.33,35.39,70.03l4.28,8.15Z" style="fill: #fff; fill-rule: evenodd;"/>
          <path d="M1742.7,1931.85c-28.2-.5-57.14-.37-86.29,.46-101.89-3.82-187.97-76.64-208.31-176.24-7.41,36.97,2.66,74.98,30.15,113.82-14.1,1.46-44.7-7.98-92.07-28.57,23.66,30.36,56.93,47.57,100.18,51.53,33.02,37.3,79.18,60.26,138.48,68.66-62.42,19.13-101.18,44.95-116.69,77.93,37.3-20.79,85.84-42.67,145.39-65.29,49.24-9.44,94.69-12.06,133.91-7.4-13.89-12.56-28.95-24.16-44.75-34.89" style="fill: #fff; fill-rule: evenodd;"/>
          <path d="M1610.24,2599.47c56.18-6.24,113.32-11.48,171.67-15.3l4.08-7.44c11.48-21.25,22.71-43.75,33.48-66.2-108.79,41.58-179.57,66.2-209.22,88.95" style="fill: #fff; fill-rule: evenodd;"/>
          <path d="M1802,2585.34c54.77-1.67,99.27-2.62,133.7-3.08,115.48-397.44,29.4-633.82-258.25-709.01,268.77,129.83,310.11,367.04,124.55,712.08" style="fill: #fff; fill-rule: evenodd;"/>
          <path d="M2239.61,2585.34c-54.52-1.67-99.02-2.62-133.45-3.08-115.49-397.44-29.65-633.82,258.04-709.01-268.56,129.83-310.15,367.04-124.59,712.08" style="fill: #fff; fill-rule: evenodd;"/>
          <path d="M2526.81,1641.41c95.65-147.3,238.37-152.33,428.25-15.3-155.66,164.26-298.42,169.42-428.25,15.3" style="fill: #fff; fill-rule: evenodd;"/>
          <path d="M2491.42,1512.41c-6.24-92.53,52.36-140.02,176-142.27-13.39,118.73-72.24,166.18-176,142.27" style="fill: #fff; fill-rule: evenodd;"/>
          <path d="M2355.35,1401c-81.55-155.57-16.01-282.41,196.33-380.68,66.95,216.04,1.41,342.88-196.33,380.68" style="fill: #fff; fill-rule: evenodd;"/>
          <path d="M2209.96,1175.27c-51.65-77.02-24.62-147.42,81.3-211.25,47.57,109.75,20.54,180.03-81.3,211.25" style="fill: #fff; fill-rule: evenodd;"/>
          <path d="M2027.73,1256.32c-146.8-96.15-151.33-238.88-13.39-428.13,163.56,156.24,168.14,298.88,13.39,428.13" style="fill: #fff; fill-rule: evenodd;"/>
          <path d="M1922.52,1482.51c-114.98-26.4-151.12-115.36-108.29-266.86,139.65,60.38,175.74,149.34,108.29,266.86" style="fill: #fff; fill-rule: evenodd;"/>
          <path d="M1699.2,1399.3c-175.54-5.11-253.97-124.47-235.55-357.85,221.2,47.62,299.63,166.93,235.55,357.85" style="fill: #fff; fill-rule: evenodd;"/>
          <path d="M1540.67,1514.07c-88.49,28.11-148.5-17.68-180.07-137.23,118.6-14.97,178.61,30.73,180.07,137.23" style="fill: #fff; fill-rule: evenodd;"/>
          <path d="M1521.04,1612.97c-86.08,153.04-228.1,167.26-426.09,42.54,144.64-173.83,286.7-188.05,426.09-42.54" style="fill: #fff; fill-rule: evenodd;"/>
          <path d="M1735.04,1579.12c-82.71,13.89-130.54-34.77-143.47-145.97,108.08,1.91,155.91,50.57,143.47,145.97" style="fill: #fff; fill-rule: evenodd;"/>
          <path d="M2114.56,1487.08c114.98-26.32,151.12-115.4,108.54-266.86-139.65,60.47-175.75,149.29-108.54,266.86" style="fill: #fff; fill-rule: evenodd;"/>
          <path d="M1711.13,1747.45c27.53-88.57-18.63-148.25-138.44-178.86-14.1,118.6,32.06,178.28,138.44,178.86" style="fill: #fff; fill-rule: evenodd;"/>
          <path d="M1819.96,1175.27c51.86-77.02,24.62-147.42-81.3-211.25-47.62,109.75-20.33,180.03,81.3,211.25" style="fill: #fff; fill-rule: evenodd;"/>
          <path d="M2315.42,1579.12c82.72,13.89,130.54-34.77,143.47-145.97-108.08,1.91-155.91,50.57-143.47,145.97" style="fill: #fff; fill-rule: evenodd;"/>
          <path d="M1889.54,1909.1c-69.82,20.33-115.98-16.72-138.44-111.08,92.98-9.44,139.15,27.66,138.44,111.08" style="fill: #fff; fill-rule: evenodd;"/>
          <path d="M1667.63,1855.91c-63.83,20.34-107.12-12.8-129.83-99.02,85.58-10.73,128.87,22.38,129.83,99.02" style="fill: #fff; fill-rule: evenodd;"/>
          <path d="M2385.46,1859.99c63.87,20.21,106.92-12.81,129.87-99.02-85.62-10.77-128.92,22.25-129.87,99.02" style="fill: #fff; fill-rule: evenodd;"/>
          <path d="M2146.58,1639.87c-27.23-88.62,18.88-148.26,138.7-178.86,14.1,118.73-32.02,178.24-138.7,178.86" style="fill: #fff; fill-rule: evenodd;"/>
          <path d="M1927.55,1638.66c27.49-88.57-18.63-148.25-138.69-178.86-13.85,118.73,32.27,178.4,138.69,178.86" style="fill: #fff; fill-rule: evenodd;"/>
          <path d="M2358.46,1744.01c-27.53-88.58,18.88-148.26,138.69-178.86,14.1,118.73-32.31,178.37-138.69,178.86" style="fill: #fff; fill-rule: evenodd;"/>
          <path d="M2108.32,1782.51c66.96,28.32,117.19-3.12,150.42-94.24-91.57-20.21-141.56,11.23-150.42,94.24" style="fill: #fff; fill-rule: evenodd;"/>
          <path d="M1941.19,1771.03c-66.95,28.32-116.94-3.12-150.42-94.24,91.58-20.21,141.81,11.23,150.42,94.24" style="fill: #fff; fill-rule: evenodd;"/>
          <path d="M2196.32,1877.08c69.83,20.33,115.98-16.76,138.44-111.08-93.23-9.44-139.39,27.61-138.44,111.08" style="fill: #fff; fill-rule: evenodd;"/>
          <path d="M2027.52,1761.09c-73.65-54.27-71.74-128.62,5.24-222.99,80.59,85.96,78.93,160.23-5.24,222.99" style="fill: #fff; fill-rule: evenodd;"/>
          <path d="M2014.34,1485.63c-65.04-47.95-63.33-113.57,4.78-197.04,71.28,76.06,69.62,141.69-4.78,197.04" style="fill: #fff; fill-rule: evenodd;"/>
        </g>
      </g>
    </g>
  </g>
</svg>