<?xml version="1.0" encoding="UTF-8"?>
<svg xmlns="http://www.w3.org/2000/svg" viewBox="0 0 4000 4000">
  <g id="a" data-name="Layer 1"/>
  <g id="b" data-name="Layer 2">
    <g id="c" data-name="Layer 1">
      <g id="d" data-name="abstract vibrant tree logo design Vector">
        <path d="M4000,2000c0,1104.57-895.43,2000-2000,2000S0,3104.57,0,2000V0H2000c1104.57,0,2000,895.43,2000,2000Z" style="fill: #00685b; fill-rule: evenodd;"/>
        <g>
          <path d="M2252.75,1968.07c41.63-6.36,90.16-4.08,143.47,6.07,59.55,22.62,108.08,44.5,145.39,65.29-15.3-32.98-54.27-58.8-116.69-77.93,59.3-8.4,105.47-31.36,138.44-68.66,43.29-3.95,76.52-21.16,100.22-51.53-47.37,20.59-77.98,30.03-92.08,28.57,27.49-38.84,37.55-76.85,30.36-113.82-20.55,99.6-106.63,172.42-208.26,176.24-32.27-.96-64.09-.96-94.94-.37-16.01,11.15-31.32,23.08-45.91,36.14" style="fill: #fff; fill-rule: evenodd;"/>
          <path d="M2260.15,2584.88c57.89,3.58,116.69,8.36,176.25,14.1-27.74-22.95-101.64-48.53-215.92-92.28,11.23,23.91,23.21,47.33,35.39,70.03l4.28,8.15Z" style="fill: #fff; fill-rule: evenodd;"/>
          <path d="M1742.7,1931.85c-28.2-.5-57.14-.37-86.29,.46-101.89-3.82-187.97-76.64-208.31-176.24-7.41,36.97,2.66,74.98,30.15,113.82-14.1,1.46-44.7-7.98-92.07-28.57,23.66,30.36,56.93,47.57,100.18,51.53,33.02,37.3,79.18,60.26,138.48,68.66-62.42,19.13-101.18,44.95-116.69,77.93,37.3-20.79,85.84-42.67,145.39-65.29,49.24-9.44,94.69-12.06,133.91-7.4-13.89-12.56-28.95-24.16-44.75-34.89" style="fill: #fff; fill-rule: evenodd;"/>
          <path d="M1610.24,2599.47c56.18-6.24,113.32-11.48,171.67-15.3l4.08-7.44c11.48-21.25,22.71-43.75,33.48-66.2-108.79,41.58-179.57,66.2-209.22,88.95" style="fill: #fff; fill-rule: evenodd;"/>
          <path d="M1802,2585.34c54.77-1.67,99.27-2.62,133.7-3.08,115.48-397.44,29.4-633.82-258.25-709.01,268.77,129.83,310.11,367.04,124.55,712.08" style="fill: #fff; fill-rule: evenodd;"/>
          <path d="M2239.61,2585.34c-54.52-1.67-99.02-2.62-133.45-3.08-115.49-397.44-29.65-633.82,258.04-709.01-268.56,129.83-310.15,367.04-124.59,712.08" style="fill: #fff; fill-rule: evenodd;"/>
          <path d="M2526.81,1641.41c95.65-147.3,238.37-152.33,428.25-15.3-155.66,164.26-298.42,169.42-428.25,15.3" style="fill: #fff; fill-rule: evenodd;"/>
          <path d="M2491.42,1512.41c-6.24-92.53,52.36-140.02,176-142.27-13.39,118.73-72.24,166.18-176,142.27" style="fill: #fff; fill-rule: evenodd;"/>
          <path d="M2355.35,1401c-81.55-155.57-16.01-282.41,196.33-380.68,66.95,216.04,1.41,342.88-196.33,380.68" style="fill: #fff; fill-rule: evenodd;"/>
          <path d="M2209.96,1175.27c-51.65-77.02-24.62-147.42,81.3-211.25,47.57,109.75,20.54,180.03-81.3,211.25" style="fill: #fff; fill-rule: evenodd;"/>
          <path d="M2027.73,1256.32c-146.8-96.15-151.33-238.88-13.39-428.13,163.56,156.24,168.14,298.88,13.39,428.13" style="fill: #fff; fill-rule: evenodd;"/>
          <path d="M1922.52,1482.51c-114.98-26.4-151.12-115.36-108.29-266.86,139.65,60.38,175.74,149.34,108.29,266.86" style="fill: #fff; fill-rule: evenodd;"/>
          <path d="M1699.2,1399.3c-175.54-5.11-253.97-124.47-235.55-357.85,221.2,47.62,299.63,166.93,235.55,357.85" style="fill: #fff; fill-rule: evenodd;"/>
          <path d="M1540.67,1514.07c-88.49,28.11-148.5-17.68-180.07-137.23,118.6-14.97,178.61,30.73,180.07,137.23" style="fill: #fff; fill-rule: evenodd;"/>
          <path d="M1521.04,1612.97c-86.08,153.04-228.1,167.26-426.09,42.54,144.64-173.83,286.7-188.05,426.09-42.54" style="fill: #fff; fill-rule: evenodd;"/>
          <path d="M1735.04,1579.12c-82.71,13.89-130.54-34.77-143.47-145.97,108.08,1.91,155.91,50.57,143.47,145.97" style="fill: #fff; fill-rule: evenodd;"/>
          <path d="M2114.56,1487.08c114.98-26.32,151.12-115.4,108.54-266.86-139.65,60.47-175.75,149.29-108.54,266.86" style="fill: #fff; fill-rule: evenodd;"/>
          <path d="M1711.13,1747.45c27.53-88.57-18.63-148.25-138.44-178.86-14.1,118.6,32.06,178.28,138.44,178.86" style="fill: #fff; fill-rule: evenodd;"/>
          <path d="M1819.96,1175.27c51.86-77.02,24.62-147.42-81.3-211.25-47.62,109.75-20.33,180.03,81.3,211.25" style="fill: #fff; fill-rule: evenodd;"/>
          <path d="M2315.42,1579.12c82.72,13.89,130.54-34.77,143.47-145.97-108.08,1.91-155.91,50.57-143.47,145.97" style="fill: #fff; fill-rule: evenodd;"/>
          <path d="M1889.54,1909.1c-69.82,20.33-115.98-16.72-138.44-111.08,92.98-9.44,139.15,27.66,138.44,111.08" style="fill: #fff; fill-rule: evenodd;"/>
          <path d="M1667.63,1855.91c-63.83,20.34-107.12-12.8-129.83-99.02,85.58-10.73,128.87,22.38,129.83,99.02" style="fill: #fff; fill-rule: evenodd;"/>
          <path d="M2385.46,1859.99c63.87,20.21,106.92-12.81,129.87-99.02-85.62-10.77-128.92,22.25-129.87,99.02" style="fill: #fff; fill-rule: evenodd;"/>
          <path d="M2146.58,1639.87c-27.23-88.62,18.88-148.26,138.7-178.86,14.1,118.73-32.02,178.24-138.7,178.86" style="fill: #fff; fill-rule: evenodd;"/>
          <path d="M1927.55,1638.66c27.49-88.57-18.63-148.25-138.69-178.86-13.85,118.73,32.27,178.4,138.69,178.86" style="fill: #fff; fill-rule: evenodd;"/>
          <path d="M2358.46,1744.01c-27.53-88.58,18.88-148.26,138.69-178.86,14.1,118.73-32.31,178.37-138.69,178.86" style="fill: #fff; fill-rule: evenodd;"/>
          <path d="M2108.32,1782.51c66.96,28.32,117.19-3.12,150.42-94.24-91.57-20.21-141.56,11.23-150.42,94.24" style="fill: #fff; fill-rule: evenodd;"/>
          <path d="M1941.19,1771.03c-66.95,28.32-116.94-3.12-150.42-94.24,91.58-20.21,141.81,11.23,150.42,94.24" style="fill: #fff; fill-rule: evenodd;"/>
          <path d="M2196.32,1877.08c69.83,20.33,115.98-16.76,138.44-111.08-93.23-9.44-139.39,27.61-138.44,111.08" style="fill: #fff; fill-rule: evenodd;"/>
          <path d="M2027.52,1761.09c-73.65-54.27-71.74-128.62,5.24-222.99,80.59,85.96,78.93,160.23-5.24,222.99" style="fill: #fff; fill-rule: evenodd;"/>
          <path d="M2014.34,1485.63c-65.04-47.95-63.33-113.57,4.78-197.04,71.28,76.06,69.62,141.69-4.78,197.04" style="fill: #fff; fill-rule: evenodd;"/>
        </g>
      </g>
      <g>
        <path d="M917.83,2686.12v68.55h-10.23c-11.1-41.68-39.8-62.52-86.09-62.52-24.89,0-43.05,7.06-54.46,21.18s-17.12,43.86-17.12,89.21c0,37.32,2.46,62.69,7.37,76.12,4.91,13.43,13.44,23.05,25.57,28.85,12.13,5.8,25.48,8.7,40.07,8.7,19.03,0,36.9-5.19,53.63-15.59,16.73-10.39,29.69-27.07,38.88-50.03h11.18l-3.81,70.44h-9.75c-3.65-7.35-9.36-13.55-17.12-18.6-25.05,15.04-50.82,22.56-77.29,22.56-33.62,0-64.3-11.54-92.04-34.62-27.75-23.08-41.62-51.32-41.62-84.73s13.63-63,40.91-86.72c27.27-23.71,58.82-35.56,94.66-35.56,27.59,0,51.92,7.18,73.01,21.53,6.18-7.12,10.86-13.37,14.03-18.77h10.23Z" style="fill: #fff;"/>
        <path d="M1121.65,2925c-41.23,0-76.22-12.51-105-37.54-28.78-25.03-43.17-51.78-43.17-80.26,0-34.21,15.1-63.41,45.31-87.58,30.2-24.17,65.28-36.25,105.24-36.25,37.58,0,71.27,12.29,101.08,36.86,29.81,24.57,44.71,52.47,44.71,83.7s-14.95,60.36-44.83,84.65c-29.89,24.28-64.33,36.43-103.34,36.43Zm.95-232.85c-17.44,0-33.1,2.9-46.97,8.7-13.88,5.8-23.31,15.87-28.3,30.23-4.99,14.35-7.49,39.38-7.49,75.09,0,24.69,1.43,44.38,4.28,59.07,2.85,14.7,10.11,26.87,21.76,36.51,11.65,9.64,29.93,14.47,54.82,14.47,15.22,0,30.48-2.93,45.78-8.78,15.3-5.86,25.29-17.37,29.97-34.53,4.67-17.16,7.02-43.54,7.02-79.14,0-32.26-2.89-54.54-8.68-66.82-5.79-12.28-15.07-21.15-27.83-26.61-12.76-5.45-27.55-8.18-44.35-8.18Z" style="fill: #fff;"/>
        <path d="M1315.48,2688.71h114.39l68.26,163.27h.95l68.73-163.27h111.54v8.78h-47.33v213.39h47.33v8.78h-150.07v-8.78h48.75v-217.35h-.95l-94.89,226.13h-10.94l-94.89-226.13h-.95v217.35h48.75v8.78h-108.69v-8.78h47.8v-213.39h-47.8v-8.78Z" style="fill: #fff;"/>
        <path d="M1835.61,2813.92v96.96h51.61v8.78h-158.87v-8.78h50.66v-213.39h-50.66v-8.78h164.34c37.1,0,65.05,5.97,83.83,17.91,18.79,11.94,28.18,26.64,28.18,44.09s-9.48,32.92-28.42,45.04c-18.95,12.12-50.46,18.17-94.54,18.17h-46.14Zm0-116.42v107.47h30.68c16.01,0,29.33-.97,39.95-2.93,10.62-1.95,19.78-7.12,27.47-15.5,7.69-8.38,11.53-21.36,11.53-38.92,0-15.5-3.37-26.89-10.11-34.19-6.74-7.29-14.71-11.77-23.9-13.43-9.2-1.66-20.61-2.5-34.25-2.5h-41.38Z" style="fill: #fff;"/>
        <path d="M2165.24,2847.67h-101.31l-32.58,63.21h58.98v8.78h-115.58v-8.78h44l116.3-227.51h7.37l111.54,227.51h42.81v8.78h-151.97v-8.78h51.61l-31.16-63.21Zm-96.8-8.78h92.51l-44.95-92.48h-.95l-46.61,92.48Z" style="fill: #fff;"/>
        <path d="M2377.62,2910.88v-213.39h-49.71v-8.78h150.54c33.3,0,61.79,3.42,85.5,10.25,23.7,6.83,43.48,20.21,59.34,40.13,15.85,19.92,23.78,41.54,23.78,64.84,0,24.69-8.72,46.73-26.16,66.13-17.44,19.4-37.54,32.52-60.29,39.35-22.75,6.83-50.46,10.25-83.12,10.25h-149.59v-8.78h49.71Zm56.6-213.39v213.39h41.38c21.72,0,39.44-1.43,53.15-4.31,13.71-2.87,25.05-9.13,34.01-18.77,8.96-9.64,15.02-21.87,18.19-36.68,3.17-14.81,4.76-34.16,4.76-58.04,0-28.7-5.03-50.12-15.1-64.24-10.07-14.12-22.4-22.88-36.98-26.26-14.59-3.39-33.62-5.08-57.08-5.08h-42.33Z" style="fill: #fff;"/>
        <path d="M2806.65,2697.49v213.39h71.59c13.79,0,24.65-.75,32.58-2.24,7.93-1.49,15.73-5.11,23.43-10.85,7.69-5.74,13.63-12.57,17.84-20.49,4.2-7.92,8.68-18.94,13.44-33.07h11.18l-8.8,75.43h-268.03v-8.78h50.18v-213.39h-50.18v-8.78h159.82v8.78h-53.04Z" style="fill: #fff;"/>
        <path d="M3124.15,2697.49v99.03h28.78c10.14,0,18.75-.72,25.8-2.15,7.05-1.43,13.4-5.31,19.03-11.63,5.63-6.31,8.84-16.19,9.63-29.62h12.37v97.82h-12.37c-1.27-18.6-6.22-30.85-14.86-36.77-8.64-5.91-21.84-8.87-39.6-8.87h-28.78v105.57h64.93c36.78,0,62.27-5.6,76.46-16.79,14.19-11.19,22.63-28.44,25.33-51.75h12.13l-3.09,77.33h-282.78v-8.78h50.66v-213.39h-50.66v-8.78h271.12l5.47,61.66h-12.13c-4.13-18.71-12.6-32.21-25.45-40.47-12.84-8.27-34.25-12.4-64.21-12.4h-67.78Z" style="fill: #fff;"/>
      </g>
      <line x1="1993" y1="2831.18" x2="1991.06" y2="2727.49" style="fill: none;"/>
    </g>
  </g>
</svg>